<svg xmlns="http://www.w3.org/2000/svg" viewBox="0 0 352.96 357.6"><defs><style>.cls-1{fill:#fe0002;}.cls-2{fill:#6c3130;}.cls-3{fill:#af5252;}.cls-4{fill:#fff;}</style></defs><g id="OBJECTS"><path class="cls-1" d="M365,149.67a111,111,0,0,0-3.67-17.35,111.6,111.6,0,0,0-6.39-16,103.89,103.89,0,0,0-17.49-24.89A77.6,77.6,0,0,0,320.65,78a28.49,28.49,0,0,0-5.43-2.61c-1.34-.46-2.14-.52-2.36-.15s.29.92,1.29,1.86,2.58,2.11,4.47,3.76a132.14,132.14,0,0,1,15,14.08,115.23,115.23,0,0,1,16.47,23.81,116.6,116.6,0,0,1,6.36,15.08,112.74,112.74,0,0,1,4,16.43,114.45,114.45,0,0,1,1.11,16.91,114.9,114.9,0,0,1-1.63,16.39,109.78,109.78,0,0,1-9,27.87,100.61,100.61,0,0,1-11,17.75c-1.48,2.06-2.85,3.51-3.7,4.56l-1.35,1.59,1.45-1.5c.92-1,2.38-2.36,4-4.33a99.12,99.12,0,0,0,12.11-17.28,108.79,108.79,0,0,0,10.66-28,112.67,112.67,0,0,0,2.41-16.88A110.32,110.32,0,0,0,365,149.67Z" transform="translate(-78.17 -50.58)"/><path class="cls-1" d="M168.8,253.9l-1.54-2.05-1.75-2.32c-.58-.85-1.19-1.74-1.83-2.66a137,137,0,0,1-7.91-13.07,157.78,157.78,0,0,1-7.14-15.87,172.11,172.11,0,0,1-5.15-16.52c-1.27-5.36-2.35-10.39-3-14.75C139,178,138.23,172,136.43,172c-1.26,0-2.07,6.14-1.1,15.31a100.66,100.66,0,0,0,3,15.44,125,125,0,0,0,6.11,16.92,131.4,131.4,0,0,0,8.6,15.73,119.8,119.8,0,0,0,9.32,12.48c.74.86,1.44,1.7,2.13,2.48l2,2.13,1.77,1.88c.56.57,1.1,1.06,1.58,1.52l3,2.86-2.64-3.2C169.77,255.08,169.29,254.53,168.8,253.9Z" transform="translate(-78.17 -50.58)"/><path class="cls-1" d="M209.89,63.53c1.25-.48,2.52-1.06,3.89-1.52L218,60.6c.73-.24,1.46-.52,2.22-.73l2.31-.61c1.56-.4,3.14-.88,4.77-1.26a127.44,127.44,0,0,1,20.82-2.83,122.5,122.5,0,0,1,21.07,1.13c1.68.25,3.3.61,4.91.9l2.37.45c.78.16,1.54.39,2.29.58l4.39,1.15c1.41.38,2.73.9,4,1.31s2.53.84,3.7,1.27l3.25,1.37L297,64.54c.88.39,1.64.82,2.36,1.17L303.86,68l-4.24-2.73c-.68-.42-1.41-.93-2.26-1.41l-2.76-1.47-3.16-1.69c-1.14-.54-2.36-1.05-3.63-1.61s-2.58-1.18-4-1.69l-4.38-1.54c-.75-.25-1.51-.55-2.29-.78l-2.4-.65c-1.62-.42-3.26-.91-5-1.3a114.49,114.49,0,0,0-21.75-2.55,110,110,0,0,0-21.9,2.18c-1.72.36-3.39.84-5,1.26l-2.43.64c-.8.23-1.56.53-2.33.78L211.91,57c-1.43.53-2.75,1.19-4,1.76s-2.52,1.14-3.66,1.74-2.17,1.25-3.15,1.84-1.89,1.16-2.72,1.7-1.52,1.15-2.16,1.67c-2.54,2.12-3.74,3.62-3.26,4.34C193.76,71.28,199.94,67.51,209.89,63.53Z" transform="translate(-78.17 -50.58)"/><path class="cls-1" d="M345.62,208.9c.13-.23.24-.46.37-.7,1-2.07,2-4.16,2.86-6.37s1.7-4.47,2.52-6.77,1.45-4.69,2-7.12a94.21,94.21,0,0,0,2.45-14.86,100.75,100.75,0,0,0,.09-15,105.64,105.64,0,0,0-2.15-14.35,107.32,107.32,0,0,0-3.87-13c-.82-2-1.51-4-2.39-5.77l-1.23-2.71L345,119.69a94.68,94.68,0,0,0-9.74-15.13c-1.31-1.73-2.45-3-3.21-3.88l-1.16-1.34,1.06,1.43c.69.93,1.73,2.27,2.91,4.09a97.08,97.08,0,0,1,8.59,15.58c.37.84.74,1.7,1.12,2.58s.69,1.8,1,2.73c.75,1.83,1.31,3.8,2,5.78a111.43,111.43,0,0,1,3,12.79A108.64,108.64,0,0,1,352,158.25a103.39,103.39,0,0,1-.71,14.37A93.17,93.17,0,0,1,349,184.56,102.64,102.64,0,0,0,215.28,69.38c.41-.17.82-.34,1.24-.49a105.33,105.33,0,0,1,11.95-3.56,109.36,109.36,0,0,1,11.89-1.95,113.73,113.73,0,0,1,21.35-.07c6.24.59,11.4,1.52,15.06,2.13a39.31,39.31,0,0,0,4.36.49c1.05,0,1.69-.18,1.83-.58s-.29-.76-1.18-1.33a23,23,0,0,0-4-2,66.93,66.93,0,0,0-15.44-3.88A92.1,92.1,0,0,0,239.77,58a100,100,0,0,0-12.52,2.36,90.53,90.53,0,0,0-24.11,10.2,102.29,102.29,0,0,0-10.35,7.26,96.38,96.38,0,0,0-11,10.43,103.17,103.17,0,0,0-12.39,12.43c2.31-4,4.42-7.4,6.05-10,1.19-2.05,2.2-3.62,2.73-4.83s.69-2,.36-2.24-.91.12-1.92,1a34.34,34.34,0,0,0-4,4A97.79,97.79,0,0,0,161.16,105a130.69,130.69,0,0,0-11.07,26.14,144.59,144.59,0,0,0-3.66,15.61,146.74,146.74,0,0,0-1.75,16.44A146.2,146.2,0,0,0,145,179.7a144.69,144.69,0,0,0,2.29,15.78,139.44,139.44,0,0,0,8.48,26.84,129.85,129.85,0,0,0,9.27,17.54c1.23,2,2.35,3.57,3,4.64l1.11,1.62s-.35-.59-1-1.7-1.64-2.69-2.73-4.82a133.37,133.37,0,0,1-8.12-17.93A144.6,144.6,0,0,1,152,202.73a102.63,102.63,0,0,0,140.9,56.15l-.94.56c-1.38.84-2.6,1.56-3.64,2.09l-3.22,1.75L288.5,262c1.11-.4,2.41-1,3.91-1.62l2.39-1.05,2.6-1.27a114.82,114.82,0,0,0,12-6.88,121.4,121.4,0,0,0,12.66-9.69A114.45,114.45,0,0,0,333.21,230a86.75,86.75,0,0,0,8.06-11.42A41.67,41.67,0,0,0,345.62,208.9Z" transform="translate(-78.17 -50.58)"/><path class="cls-2" d="M422.54,189.46s6.35-1.87,6.35-5.24-4.86-9.34-7.1-12.71-10.1-7.1-10.1-7.1-1.87-3-4.11-3.37a74.39,74.39,0,0,0-7.85-.37s-21.56-8.35-30.91-8-19.44,8.48-19.44,8.48-17.7-3.49-24.43,2.12c1.87-2.62-4.11-14.59-11.59-15.71s-32.53,4.11-32.53,4.11,1.12-4.86-5.24-5.6S257.65,148,257.65,148s-12.34-20-17.95-20.73-17.95,12.87-17.95,12.87l-17.2-4.86s-15.33-6.35-22.06-4.48c-1.49-.38-28.79-10.85-34-11.22s-20.19,2.24-20.19,2.24-11.22-4.48-15-3.36-10.84,6-10.84,6a6.87,6.87,0,0,0-6,1.87c-2.62,2.62-7.11,14.21-7.11,14.21l-11.22,9,6,7.11L95,148.33s2.24,6,7.48,4.11,14.21-10.84,14.21-10.84,8.22-.75,12.71,0,7.48,6.36,14.58,7.85,15.7-1.49,15.7-1.49,1.87,15.7,30.66,19.44c.38,1.49-1.49,23.55,4.87,33.28-1.13,1.12,5.6,19.44,17.94,25,0,0-3.74,5.61,4.49,8.22.37,1.87-8.53,21.87,8.76,27.19-12,12.85-30.15,15.07-46.11,19.51s-32.2,13.13-34.07,19.11-4.48,12.34-5.6,15.33-1.5,12.71,1.87,17.2,11.21,3.36,11.21,3.36A65.58,65.58,0,0,0,175,340.51c12.34.75,16.08-2.24,20.94-4.86s18.32-6.73,18.32-6.73l5.61-4.11s27.3,31.41,31.78,30.29,5.24-5.24,4.12-9.35S234.09,317,234.09,317s16.08,1.49,21.69-1.5c1.49.38,16.45,5.61,24.3,3.37-1.49,1.87-9,7.1-9.72,11.59s6,13.83,6,13.83-6,62.07-1.12,63.19,14.21-6,16.45-12.34c1.44-4.08-.66-16.33-2.36-24.58a26.66,26.66,0,0,1,1.61-15.8s10.78-6.11,17.3-8a45.16,45.16,0,0,0,12-5.52,100.46,100.46,0,0,0,9.59-10.75c4.11-5.61,7.85-16.83,7.85-16.83s13.09-16.82,14.58-25.42,1.13-19.07-3.74-23.56S336.91,262,336.91,262s-7.1-7.1-13.08-7.85-15,1.87-15,1.87l-20.19,1.87s6.73-6,7.1-9.72,6.73-5.61,6.36-12,1.12-9.35,1.12-9.35,8.6-16.45,9-17.95,6-10.09,6-10.09,18.69-2.25,28-10.85c4.49-1.87,17.2-1.87,24.68-7.1,3-.75,17.2-5.61,17.2-5.61l13.08,4.49s5.24,11.21,7.48,12.71,6.36.75,6.36.75L425.53,204l5.61-4.11Z" transform="translate(-78.17 -50.58)"/><path class="cls-3" d="M336.91,262s-7.1-7.1-13.08-7.85-15,1.87-15,1.87l-20.19,1.87s.59-.53,1.43-1.35a16.73,16.73,0,0,0-3.57,2,17.53,17.53,0,0,0-2.46,2.17c-.45.46.26,1.17.71.7.24-.25.5-.48.75-.72-.21.4.22,1,.67.68,2.66-1.86,5.89-1.89,9-1.56s6.4,1.06,9.64.93c3.78-.14,7.44-1.27,11.22-1.44a30.58,30.58,0,0,1,10.5,1.33c5.64,1.74,11.72,5.75,13.05,11.92a8.49,8.49,0,0,1-.14,4.19,46.77,46.77,0,0,1-2,4.3,5.21,5.21,0,0,0-.1,4.2A32.77,32.77,0,0,0,340,289.5c2,3.2,3.65,6.79,3.82,10.62a12,12,0,0,1-3.4,9.35.43.43,0,0,0-.1.54c3.9-5.42,10.85-15.72,11.91-21.84,1.5-8.6,1.13-19.07-3.74-23.56S336.91,262,336.91,262Z" transform="translate(-78.17 -50.58)"/><path class="cls-3" d="M240.27,261.64c-6-3.58-15.42-8.93-9.21-27.33.09-.27-21.93-11.84-22-11a22.38,22.38,0,0,0,4.06,2.43s-3.74,5.61,4.49,8.22c.37,1.87-8.53,21.87,8.76,27.19-12,12.85-30.15,15.07-46.11,19.51S148.9,295.28,147,301.26s-5.77,6.21-6.42,13.83c-.28,3.18-1.5,12.71,1.87,17.2s11.21,3.36,11.21,3.36,1.36.62,3.73,1.42a26,26,0,0,1-7.62-5.7,11,11,0,0,1-2.53-5.15,15,15,0,0,1,.83-7.13c.79-2.52,1.8-5,2.36-7.56a12.72,12.72,0,0,0,1.37,2.89,10.89,10.89,0,0,0,7.32,5,8.63,8.63,0,0,0,2.27,0c.63-.08.64-1.08,0-1a9,9,0,0,1-8-3.52A11.22,11.22,0,0,1,151,306c1.11-7,7.28-11.88,13.5-14.4a82.77,82.77,0,0,1,11.24-3.31c4.08-1,8.13-2.06,12.16-3.25s8.1-2.49,12.1-3.89c3.23-1.13,6.44-2.32,9.56-3.75,5.88-2.69,11.6-6.31,15.32-11.74.18-.26.35-.53.52-.81l1,.45,7.78,3.54,17.48,8c.31.14,3.67,1.12,3.62.7C254.49,270.66,245.79,265,240.27,261.64Z" transform="translate(-78.17 -50.58)"/><path class="cls-3" d="M368.82,152.69c-9.35.38-19.44,8.48-19.44,8.48s-17.7-3.49-24.43,2.12c1.87-2.62-4.11-14.59-11.59-15.71s-32.53,4.11-32.53,4.11,1.12-4.86-5.24-5.6S257.65,148,257.65,148s-12.34-20-17.95-20.73-17.95,12.87-17.95,12.87l-17.2-4.86s-15.33-6.35-22.06-4.48c-1.49-.38-28.79-10.85-34-11.22-3.65-.26-12,.93-16.75,1.68a1.05,1.05,0,0,1,.13.26,2.44,2.44,0,0,1,.08,1c-.51-.36-1,.49-.49.87l.11.08a.68.68,0,0,1-.79,0c-.58-.25-1.09.61-.5.86a1.78,1.78,0,0,0,2.08-.38c4.27,2.58,9.52,1.56,14.24.83a29.08,29.08,0,0,1,9.35-.38,28.69,28.69,0,0,1,8,2.87c5.16,2.59,10,5.84,15.76,7,3.28.68,6.64.86,9.93,1.48a39.53,39.53,0,0,1,9.43,3.11c6.43,3,12.13,7.31,17.76,11.58a.5.5,0,0,0,.6-.08c5.28-5.22,12.75-12,20.83-10.73,6.73,1,10,7.53,13.85,12.38a17.57,17.57,0,0,0,7.5,6,.51.51,0,0,0,.62-.35c.65-3.13,4.13-3.89,6.89-3.63,3.54.33,6.47,2.59,9.7,3.86a11.07,11.07,0,0,0,5.23.88,16.07,16.07,0,0,0,4.47-1.47c1.53-.67,3.4-1.66,5.13-1.32,2,.41,2.55,2.52,3.37,4.11,2.81,5.42,9.88,3.81,14.85,4.07a13.12,13.12,0,0,1,4.9,1.08,47,47,0,0,1,4.53,2.78,10.42,10.42,0,0,0,8.45,1.31c3.19-.86,6-2.69,9.05-3.9a14,14,0,0,1,4.92-1.14,21.61,21.61,0,0,1,5.89,1.17,14,14,0,0,0,5.4.61,19.58,19.58,0,0,0,5.12-1.62,28.36,28.36,0,0,1,6.06-2,33.54,33.54,0,0,1,6.33-.45c7.18.07,14.82,1.4,21.53-2a13.43,13.43,0,0,0,2.22-1.39C387.25,156.24,375.2,152.44,368.82,152.69Z" transform="translate(-78.17 -50.58)"/><path class="cls-3" d="M317.86,294.67c-2.24,1.67-5.68,2.8-8.21,1.06-1.84-1.26-2.82-4.25-1.18-6.05a.51.51,0,0,0-.1-.79c-4.29-2.23-8.67,2-10.16,5.75-1,2.42-1.4,5-2.28,7.46a13,13,0,0,1-1.74,3.37c-.74,1-1.68,1.83-2.37,2.87a7,7,0,0,0-1,3.55c-.09,1.42-.26,2.7-1.5,3.59a26.46,26.46,0,0,1-3.5,1.94c-1.24.63-2.49,1.24-3.71,1.9-4.41,2.37-9,5.8-10,11a12,12,0,0,0,1.39,7.68c1,2.12,2.33,4.2,2.89,6.51h-.08c-.41,4.33-5.78,61.84-1.1,62.92a5.75,5.75,0,0,0,2.23,0,3.81,3.81,0,0,0,.13-.45,39.52,39.52,0,0,0,.74-6.78q.23-3.71.12-7.43a98.48,98.48,0,0,0-1.61-14.62c-.44-2.45-.88-4.91-1.13-7.39a48.36,48.36,0,0,1-.11-7.32c.28-4.91,1-9.79,1-14.72,0-1.08-.08-2.16-.19-3.23h0a.4.4,0,0,0,.19,0l.06.33c.06.63,1.06.64,1,0,0-.33-.09-.64-.15-1,.33.45,1.09,0,.81-.57-2.67-5.14.74-11,4.8-14.23,4.57-3.61,10.27-5.34,15-8.64a19.21,19.21,0,0,0,5.71-5.82,1.82,1.82,0,0,0,.53-1c.11-.53-.64-.91-.91-.38-.13.24-.26.47-.4.7a1.76,1.76,0,0,1-1.61.27c-1.18-.34-1.47-1.67-1.36-2.75a9.81,9.81,0,0,1,3-5.47c2.91-2.95,6.79-4.72,10.21-7a21.46,21.46,0,0,0,5.14-4.55C318.78,295.06,318.36,294.3,317.86,294.67Z" transform="translate(-78.17 -50.58)"/><path d="M246.17,101c4.81-3.3,7-8.53,4.81-11.68s-7.82-3-12.64.26-7,8.53-4.81,11.69S241.35,104.33,246.17,101Z" transform="translate(-78.17 -50.58)"/><path d="M261.94,85.07c3.3-2.27,4.78-5.86,3.3-8s-5.37-2.08-8.67.18-4.79,5.86-3.31,8S258.63,87.33,261.94,85.07Z" transform="translate(-78.17 -50.58)"/><path d="M342.2,84.57c3.31-2.27,4.79-5.86,3.3-8s-5.36-2.08-8.67.18-4.79,5.86-3.3,8S338.89,86.83,342.2,84.57Z" transform="translate(-78.17 -50.58)"/><path d="M354.78,201.86c-3.31,2.26-4.79,5.85-3.31,8s5.37,2.08,8.68-.18,4.78-5.86,3.3-8S358.08,199.59,354.78,201.86Z" transform="translate(-78.17 -50.58)"/><path d="M344.59,148.14c3.3-2.27,4.78-5.86,3.3-8s-5.37-2.08-8.68.18-4.78,5.86-3.3,8S341.28,150.4,344.59,148.14Z" transform="translate(-78.17 -50.58)"/><ellipse cx="185.48" cy="115.41" rx="7.26" ry="4.75" transform="translate(-110.94 74.43) rotate(-34.41)"/><path d="M261.71,96.13c1,1.39,3.43,1.33,5.55-.12s3.06-3.74,2.11-5.13-3.43-1.33-5.55.12S260.76,94.74,261.71,96.13Z" transform="translate(-78.17 -50.58)"/><path d="M320,116.51c2.11-1.45,3.06-3.74,2.11-5.13s-3.43-1.34-5.55.11-3.06,3.75-2.11,5.14S317.85,118,320,116.51Z" transform="translate(-78.17 -50.58)"/><path d="M329.93,109.05c1.56-1.06,2.38-2.57,1.85-3.35s-2.24-.56-3.8.51-2.38,2.56-1.84,3.35S328.37,110.12,329.93,109.05Z" transform="translate(-78.17 -50.58)"/><path d="M224.39,92.23c1.56-1.06,2.39-2.56,1.85-3.35s-2.24-.56-3.8.51-2.38,2.57-1.84,3.35S222.84,93.3,224.39,92.23Z" transform="translate(-78.17 -50.58)"/><path d="M297.3,114.73c1.56-1.06,2.39-2.56,1.85-3.35s-2.24-.56-3.8.51-2.38,2.57-1.84,3.35S295.75,115.8,297.3,114.73Z" transform="translate(-78.17 -50.58)"/><path d="M203.81,114.68c-1.56,1.06-2.39,2.57-1.85,3.35s2.24.56,3.8-.5,2.38-2.57,1.84-3.36S205.36,113.61,203.81,114.68Z" transform="translate(-78.17 -50.58)"/><path d="M338.53,201.61c1.56-1.06,2.38-2.57,1.85-3.35s-2.24-.56-3.8.51-2.38,2.56-1.84,3.35S337,202.68,338.53,201.61Z" transform="translate(-78.17 -50.58)"/><path d="M233.4,283a6,6,0,0,0-.84-1.27A3,3,0,0,0,233.4,283Z" transform="translate(-78.17 -50.58)"/><path d="M277.78,347.18a1.35,1.35,0,0,0,1.55-.64,1.39,1.39,0,0,0,.12-1.07c-.06-.18-.19-.26-.37-.36-1-1.44-2.18-3-3.24-4.68a17.54,17.54,0,0,1-2.57-6.33,8.79,8.79,0,0,1,1.24-6.62,10.63,10.63,0,0,1,1.16-1.4c.44-.45,1-.83,1.46-1.27a18.19,18.19,0,0,1,3.41-2.09,40.94,40.94,0,0,1,7.91-2.6c2.69-.67,5.37-1.26,7.9-2a33,33,0,0,0,7-2.85,17.46,17.46,0,0,0,4.93-4.18,22.47,22.47,0,0,1-5.56,2.81,46.84,46.84,0,0,1-6.94,1.63l-1.84.28a14.12,14.12,0,0,1,3.16-9.21q2-1,4.2-2a120.53,120.53,0,0,0,12.83-6.06,27.45,27.45,0,0,0,8.77-7.65,48.14,48.14,0,0,1-9.95,5.27c-2.77,1.14-5.83,2.21-9,3.45a8,8,0,0,1-1.94-5.16,9.19,9.19,0,0,1,.09-1.39,22.4,22.4,0,0,1,2.51-2.13c1.43-1,3-1.95,4.5-2.86s3-1.82,4.41-2.72a69,69,0,0,0,7.09-5.22,70.9,70.9,0,0,0-8.32,2.86c-1.54.63-3.12,1.32-4.77,2.09-1,.46-1.95,1-2.95,1.55.06-.1.12-.21.19-.31a29.8,29.8,0,0,1-6.14,1.72,182.78,182.78,0,0,1,22.8-16.45,59.8,59.8,0,0,0-12.29,4.92,71.38,71.38,0,0,0-9,5.72l.56-.63c3.2-3.52,6.34-6.73,9.38-9.55s6-5.28,8.62-7.44a27.54,27.54,0,0,0-11.61,3,39.91,39.91,0,0,0-10.74,8c.93-1.62,1.82-3.19,2.7-4.66,2.64-4.45,5.4-8.11,8.7-10.71a17.85,17.85,0,0,0-6.56,2.35,30.3,30.3,0,0,0-6.33,5.09,59.78,59.78,0,0,0-4.87,5.77c1.66-4.34,3-8.27,4.12-11.73a44,44,0,0,0-8.9,9.5c-2.88,3.92-5.59,8.37-8.57,12.64-.45.64-.91,1.25-1.37,1.86a32.26,32.26,0,0,1-29-2.49c-.83-.68-1.65-1.4-2.45-2.17a1.71,1.71,0,0,0-1.33-1.34c-.85-.89-1.68-1.82-2.49-2.8-1.64-2-3.12-4-4.5-6.06-.82-1.22-1.62-2.44-2.43-3.64l.59.41c1.85,1.32,3.77,2.78,5.83,4.22a42.52,42.52,0,0,0,6.45,3.79,21.84,21.84,0,0,0,6.86,2,16.24,16.24,0,0,0,6.4-.48,11.42,11.42,0,0,0,4.68-2.69,14.06,14.06,0,0,1-4.95,1.2,18.13,18.13,0,0,1-3.71-.23,20.86,20.86,0,0,0-3.17-4.9,39.27,39.27,0,0,0-5.25-4.87c-3.9-3.14-8.57-6-12.06-10a19,19,0,0,1-4.29-8.14q2.55.93,5.43,1.67a54.8,54.8,0,0,0,17.7,1.61A46.31,46.31,0,0,0,270.63,246a37.67,37.67,0,0,0,11.29-8.75,46.67,46.67,0,0,1-11.87,7.55,52.24,52.24,0,0,1-16.7,4.2,64.82,64.82,0,0,1-17.26-1.09c-2.08-.41-4.06-.89-5.93-1.4a20.33,20.33,0,0,1-.39-4.43,24.48,24.48,0,0,1,1.31-6.83,48.81,48.81,0,0,0,13,1.89A57.54,57.54,0,0,0,268.47,232c-6.3.52-14.91,1.61-24.38,1.51a92,92,0,0,1-12.07-.93c.21-.56.41-1.1.6-1.63a51.13,51.13,0,0,0,30.09-5.12,43.87,43.87,0,0,0,10.41-7.35,109.88,109.88,0,0,1-11.46,4.91A86.08,86.08,0,0,1,247,227.14a87,87,0,0,1-15.07,1,109.5,109.5,0,0,1-12.43-1,43.5,43.5,0,0,0,12.19,3.69l.51.07c-.36.5-.73,1-1.09,1.56l-.31,0A98.24,98.24,0,0,1,220.12,230a35.93,35.93,0,0,0,9.56,4.75l-.08.13a20.37,20.37,0,0,0-2.47,6.89,19,19,0,0,0-.22,3.72c-1.58-.5-3.07-1-4.44-1.5,1.35.71,2.85,1.44,4.47,2.13a20.15,20.15,0,0,0,.66,3.94,19.67,19.67,0,0,0,1.67,4.16,14.75,14.75,0,0,0,1.22,1.95,16.76,16.76,0,0,0,1.42,1.82,33.25,33.25,0,0,0,6.66,5.68c2.29,1.54,4.55,2.83,6.63,4.1a63.28,63.28,0,0,1,5.73,3.79,29.7,29.7,0,0,1,4.06,3.78c-.59-.11-1.19-.23-1.79-.39a25.19,25.19,0,0,1-5.82-2.37,66.21,66.21,0,0,1-5.89-3.76c-2-1.4-4-2.81-6.06-4.05a49.21,49.21,0,0,0-6.11-3.13l-1.84-.83c-.33-.27-.66-.54-1-.78a12.68,12.68,0,0,0-2.45-1.31,41.13,41.13,0,0,1-3.78-4.35,8.24,8.24,0,0,1-1.33-2.93,17.93,17.93,0,0,1-.25-3.69c0-2.85-.1-5.48,0-7.86a36.55,36.55,0,0,1,.48-4.83c.34.08.67.15,1,.2a11.62,11.62,0,0,0,4-.13c-1.73-1.68-4.4-3.06-6.62-4.7a14.11,14.11,0,0,1-4-4.47c.22.09.42.17.58.22-.28-.23-.55-.47-.82-.71-.12-.26-.23-.53-.33-.8-.07.1-.15.22-.22.34-34.85-30.56-9.43-79.19,3.46-86.28,2.12.43,4.09.8,5.85,1.06a65.28,65.28,0,0,0-38.79-9.26l-10.2-5a92.14,92.14,0,0,0-13.4-5.57,38.49,38.49,0,0,0-14.7-1.73,23.57,23.57,0,0,0-8.26,2.27c-4.53.61-8.44,1.3-8.44,1.3l-.16-.06c21.29-17.29,83-67.28,86.73-68.82-21.39,2-80.09,51.49-96.6,65.76a11.59,11.59,0,0,0-4.93-.25c-3.74,1.13-10.84,6-10.84,6a6.89,6.89,0,0,0-6,1.87c-2.61,2.61-7.1,14.21-7.1,14.21l-11.22,9,6,7.11L95,148.34s2.24,6,7.48,4.11,14.21-10.84,14.21-10.84a77.28,77.28,0,0,1,11.33-.18h0c.48,0,.95.1,1.38.17,4.49.75,7.48,6.36,14.58,7.85s15.7-1.49,15.7-1.49,1.87,15.7,30.66,19.44c0,0-4.62,10.21-.52,28.78,3.64,16.47,17.39,26.54,22.71,29.32a5.5,5.5,0,0,0-.19,3.42,8.07,8.07,0,0,0,3,4.46,9.85,9.85,0,0,0,2.91,1.47,15,15,0,0,0-2.25,4.63,29.06,29.06,0,0,0-1,8.33,14.19,14.19,0,0,0,.65,4.65,9,9,0,0,0,2.61,3.74A12.84,12.84,0,0,0,221,258a14.34,14.34,0,0,0,2.1,2.36,25.22,25.22,0,0,0,2.74,2.18,47.55,47.55,0,0,1-5.09,3.8A59,59,0,0,1,206,272.88c-6.22,1.95-13.58,3.34-21.31,5.33A92,92,0,0,0,173,282a82,82,0,0,0-11.17,5.59,77.79,77.79,0,0,0-10,7.15c-.45.4-.89.82-1.33,1.24a14.92,14.92,0,0,1,2.43-3.24,12.16,12.16,0,0,0-4.22,3.41,14.8,14.8,0,0,0-2.8,5.86,15.1,15.1,0,0,0,.09,7.4,14.17,14.17,0,0,0,1.59,3.73,16.25,16.25,0,0,0,2.61,3.2,21.65,21.65,0,0,0,13.76,5.49c4.49.25,10.61-2.57,10.82-2.7s-.11-.17-.86-.06a27,27,0,0,1-9.4,0,25,25,0,0,1-7.33-2.56,20.57,20.57,0,0,1-6.9-5.88,12,12,0,0,1-1-2.24,13.88,13.88,0,0,1-.73-5.17,7.82,7.82,0,0,1,.63-1.75,15.23,15.23,0,0,1,3.32-4.22,51.3,51.3,0,0,1,4.56-3.65,82.12,82.12,0,0,1,21.3-11.13c7.52-2.59,15.16-4.08,21.88-5.93a74.77,74.77,0,0,0,16.69-6.34,36.83,36.83,0,0,0,7.75-5.53c.63-.62,1.13-1.16,1.51-1.61a16.92,16.92,0,0,0-.21,3.25,20.15,20.15,0,0,0,5.8,13.36,15.48,15.48,0,0,0,4.91,3.38,115.83,115.83,0,0,1-5.73-11c-1.11-2.57-2-5.07-2.73-7.36.32.51.63,1,1,1.58,1.12,1.94,2.18,4.08,3.47,6.31a49.07,49.07,0,0,0,4.57,6.59,36.57,36.57,0,0,0,4.67,4.72,10.11,10.11,0,0,1-2.57.38,12.25,12.25,0,0,0-2.24.41c-7.36-2.9-13.86-6.1-18.86-8.05A56.57,56.57,0,0,0,234,287.4a4.32,4.32,0,0,1-.64,1.83,6.53,6.53,0,0,1-2.84,2.59l-1.77-.41c-6-1.43-11.83-2.72-17.29-3a31,31,0,0,0-14.06,2.25,45.17,45.17,0,0,1,13.79.39c5.13.85,10.69,2.42,16.72,3.86q1.56.38,3.12.69a3.84,3.84,0,0,1,.17,2.07,4.16,4.16,0,0,1-1.8,2.58l-3.69-1.51c-5.39-2.25-10.79-4.23-16-5a28.24,28.24,0,0,0-7.36-.2,21.1,21.1,0,0,0-6.09,1.59,32.68,32.68,0,0,1,12.91,1.21,132.73,132.73,0,0,1,15.12,5.74,72.87,72.87,0,0,0,9.63,3.33c.09.21.17.43.24.65a143.59,143.59,0,0,1-14.88-.48c-7.66-.63-15.07-1.54-21.92-2a90.67,90.67,0,0,0-18.26.36c5,1.5,10.82,3.2,17.43,4.89a148.72,148.72,0,0,0,17.82,3.52c-1.75,0-3.52,0-5.32-.07-8.42-.32-16.49-1.33-23.9-2.28s-14.15-1.83-19.86-2.15A129.81,129.81,0,0,0,184,315.27a98.75,98.75,0,0,0,24.75,4.35,72.72,72.72,0,0,0,13.3-.74l-2.18.44c-6,1.17-12.6,2.3-19.56,3.21s-13.62,1.44-19.74,1.83l-16.45.89a62.84,62.84,0,0,0,16.24,4.42,79.83,79.83,0,0,0,20.87.08,81.12,81.12,0,0,0,16.63-4,92.9,92.9,0,0,1-9.89,4.95,88.55,88.55,0,0,1-18.1,5.61,87,87,0,0,1-9.72,1.27,66.56,66.56,0,0,1-9.11.13,44.75,44.75,0,0,1-12.65-2.45,17.58,17.58,0,0,0,4.79-4,26.46,26.46,0,0,1-8.59,2.79,13.17,13.17,0,0,1-9.58-2.36,11.13,11.13,0,0,1-3.14-3.94,13,13,0,0,1-1.13-4.75,29.49,29.49,0,0,1,.33-5.7,9.24,9.24,0,0,0,1.66,2,11.52,11.52,0,0,0,2.9,1.91,15.84,15.84,0,0,0,5.34,1.36c-2.13-2.29-5.82-4.61-7.23-7.94a7.69,7.69,0,0,1-.66-2.49,5.11,5.11,0,0,1,.32-2.31c.3-.81.78-1.68,1.1-2.59a4.48,4.48,0,0,0,.26-2.64c-.71,1.46-2.15,2.1-3.63,3.85a6.53,6.53,0,0,0-1.43,3.6,8.22,8.22,0,0,0,.67,3.94,19.91,19.91,0,0,0-2.28,6.92,13.1,13.1,0,0,0,.66,6.14,12.52,12.52,0,0,0,4,5.51,12.74,12.74,0,0,0,6.28,2.6,14.59,14.59,0,0,0,6.09-.5,15.9,15.9,0,0,0,2.66-1.08,29.1,29.1,0,0,0,4.62,2.45,37.62,37.62,0,0,0,8.32,2.32,50.46,50.46,0,0,0,9.57.61,61.57,61.57,0,0,0,28.84-7.87,55.07,55.07,0,0,0,11.25-8.29l1-.4c1.52-.63,3-1.3,4.36-2,14,4.13,24.1,14.59,30.36,27.58a11.22,11.22,0,0,0-.39-4.25c-1.05-3.84-19-25.53-21.41-28.46l.39-.28c3.08.25,16.09,1.08,21-1.55,1.49.38,16.45,5.61,24.3,3.37l-.17.19-.94.42a19.56,19.56,0,0,0-4.09,2.6c-.6.56-1.22,1-1.76,1.66a12.32,12.32,0,0,0-1.46,2,10.38,10.38,0,0,0-1.48,4.62,12.33,12.33,0,0,0,.5,4.42,16.87,16.87,0,0,0,4,6.65,30.7,30.7,0,0,0,2.79,2.63c-.51-.24-.91-.28-1.21.09a1.77,1.77,0,0,0-.05,1.75A2.33,2.33,0,0,0,277.78,347.18Zm-93.42-203c-6.48-5.49-8-3-17-4.49s-5-10-5-10a31.63,31.63,0,0,1-11.47,9c-7,3-11-2-17.45-4a35.24,35.24,0,0,0-4.68-1.08,23.46,23.46,0,0,1,8-12.18,33.43,33.43,0,0,1,8.25-.6,56.06,56.06,0,0,1,13.57,2.55c4.75,1.46,9.25,3.19,13.46,4.55A60.73,60.73,0,0,0,183,130.62c4.95,1.6,11.8,3.26,19.38,5l3.24.76a59.32,59.32,0,0,0-13.08,21.16C190.77,153,188,147.25,184.36,144.22Z" transform="translate(-78.17 -50.58)"/><path d="M354.8,270.88a16.06,16.06,0,0,0-1.82-3.06c-.31-.41-.64-.79-1-1.17a9.05,9.05,0,0,0-3.73-3.23c0,.07.07.14.11.2l-.34-.22a14.34,14.34,0,0,0-5.71-1.9,10.74,10.74,0,0,0-5,.69,16.21,16.21,0,0,0-4.83-5.45,19.17,19.17,0,0,0-18.74-2.11,17.48,17.48,0,0,0-2.16,1.11,56.4,56.4,0,0,0-13.94-.91,31.25,31.25,0,0,0-6.2,1.1l.11-.11a25,25,0,0,0,5.13-8.33,57.53,57.53,0,0,1-6.94,6.38A46.93,46.93,0,0,1,269.33,263a58,58,0,0,1-9.38.92,25,25,0,0,0,9.63,1.73,30.07,30.07,0,0,0,8.26-1.31c-3.73,3.48-6.86,7-10.16,9.75a34.45,34.45,0,0,1-6.15,4.27,22.17,22.17,0,0,1-6.18,2.22,17.66,17.66,0,0,0,6.76-.83,28.16,28.16,0,0,0,7.16-3.53c4.75-3.1,9-7.63,13.65-11.53a34.1,34.1,0,0,1,7.29-4.78,33,33,0,0,1,7.77-2.46,131.59,131.59,0,0,1,13.27-1.53,15.45,15.45,0,0,0-3.74,3.26,38.79,38.79,0,0,1,7-2,29.9,29.9,0,0,1,8.46-.33,29.55,29.55,0,0,1,8.17,2.2,38.72,38.72,0,0,1,6.36,3.52l-.16-.31c4.76-.68,9.84,2.2,12.64,6.78a10.4,10.4,0,0,1-.17,2.55c-.54,2.76-2.43,5.45-5.07,7.85a29.16,29.16,0,0,1-8.6,5.38,37.66,37.66,0,0,1-8.67,2.35,16.92,16.92,0,0,0,9.64,1.52,20.48,20.48,0,0,0,11.25-5.18c-.23.46-.46.92-.72,1.38a61,61,0,0,1-8.81,12.26c-7.34,7.91-15.79,13.27-21.82,17.21a53.74,53.74,0,0,0,11.86-4.88,51.61,51.61,0,0,0,12.63-9.86A43,43,0,0,0,350.05,286a34.83,34.83,0,0,0,1.87-6.85l.32-.58a30.9,30.9,0,0,1-1.82,9.19,51.74,51.74,0,0,1-6.6,12.57,58.49,58.49,0,0,1-21,17.78,59.73,59.73,0,0,1-22.12,6.17,45.6,45.6,0,0,0,23.71-2.52,53.18,53.18,0,0,0,12.68-6.95c-1.18,1.93-2.47,4-3.87,6.07a70.51,70.51,0,0,1-6.92,4.27,61.43,61.43,0,0,1-25.9,7.33,75.24,75.24,0,0,1-11.24-.22,34.06,34.06,0,0,0,11.2,2.88,40.45,40.45,0,0,0,27.37-7.75c.78-.57,1.51-1.17,2.2-1.77A61.15,61.15,0,0,1,318.82,338a30.43,30.43,0,0,1-7.94,4.54,33,33,0,0,1-8.4,2.07,37.24,37.24,0,0,1-15.09-1.44,24.06,24.06,0,0,0,6.48,3.64,13.94,13.94,0,0,0-3.58,1.19,17.2,17.2,0,0,0-7.26,6.89,19.58,19.58,0,0,0-2.5,9.59,18.88,18.88,0,0,0,1.57,7.64c.41-4.34,1.11-10.16,4.09-15.43a22.87,22.87,0,0,1,5.51-6.43,21.19,21.19,0,0,1,4.4-2.71,28,28,0,0,0,5.18.93c-1.17.33-2.37.66-3.62,1.08a25.39,25.39,0,0,0-4.36,1.88,13.88,13.88,0,0,0-4.06,3.38,13.64,13.64,0,0,0-2.58,5.06,19.3,19.3,0,0,0-.64,5.77,43,43,0,0,0,2.24,11.51,56.86,56.86,0,0,1,2.53,10.61,14.84,14.84,0,0,1-1.55,9.23,16.72,16.72,0,0,1-4.21,4.59,14,14,0,0,0,.88-2.6,18.1,18.1,0,0,0,0-7.41A22.68,22.68,0,0,0,284,386c-.77,3.3-.73,7.8-1.68,12.15a16.84,16.84,0,0,1-5.8,9.81h.08l-.29.23.49-.24a8.38,8.38,0,0,0,5.3-2.33,7.49,7.49,0,0,0,.69-.69l.85-.44a35.62,35.62,0,0,0,4-2.42,15.27,15.27,0,0,0,3.75-3.66,14.2,14.2,0,0,0,2.28-5.17,20.4,20.4,0,0,0,.41-5.78A48.37,48.37,0,0,0,291.73,376a48.09,48.09,0,0,1-2.34-10.59,14.08,14.08,0,0,1,2-9.08c1.62-2.52,4.31-4.13,6.88-5.46,1.64-.83,3.27-1.58,4.79-2.34a29.38,29.38,0,0,0,9.49-1.27,28.83,28.83,0,0,0,9.66-5.06,38.78,38.78,0,0,0,7.33-7.78,59.21,59.21,0,0,0,9.44-21.1,50.53,50.53,0,0,0,9.3-9.85,48.77,48.77,0,0,0,7-14.22,29.07,29.07,0,0,0,.72-15A21.67,21.67,0,0,0,354.8,270.88Z" transform="translate(-78.17 -50.58)"/><path d="M261,257.76a42.67,42.67,0,0,0,13.16-.26A48.62,48.62,0,0,0,289.64,252a32.85,32.85,0,0,0,7-5.14,19.8,19.8,0,0,0,4.64-6.83,25.33,25.33,0,0,0,1.6-7,51.26,51.26,0,0,0,.15-6.09c-.51,1.78-1,3.75-1.64,5.8a31.63,31.63,0,0,1-2.52,6.21c-2.17,4.05-6.24,7.25-11,9.93a72.61,72.61,0,0,1-14.29,6.13A93.41,93.41,0,0,1,261,257.76Z" transform="translate(-78.17 -50.58)"/><path d="M266.41,202.73a32.64,32.64,0,0,0,14-23.76,88.1,88.1,0,0,1-5.92,12.51A88.84,88.84,0,0,1,266.41,202.73Z" transform="translate(-78.17 -50.58)"/><path d="M422.54,189.46a18.12,18.12,0,0,0,2.91-1.21h0c1.68-.89,3.45-2.24,3.45-4,0-3.36-4.86-9.34-7.1-12.71s-10.1-7.1-10.1-7.1-1.87-3-4.11-3.37a46.7,46.7,0,0,0-5-.33c-17-18.12-66.89-69.63-87.15-73.69,1.58.86,13.51,12.43,28,26.74l-.21.12c-3.31,2.27-4.78,5.86-3.3,8s5.37,2.08,8.67-.18a11.2,11.2,0,0,0,1.56-1.3c12.79,12.7,26.55,26.5,36.5,36.51A23.64,23.64,0,0,1,390,167.29c-5.39-2.65-13.8-5.92-19.69-4.13-4.87,1.48-9.78,7.76-14.23,12.53,0-.15,0-.3-.09-.45a9.43,9.43,0,0,0-4.85-6.29,42.62,42.62,0,0,0,1.33,7.2c.21.84.44,1.66.68,2.45a16.18,16.18,0,0,1-2.39,1.81c0-.12,0-.23,0-.35a16.22,16.22,0,0,0-7-11.62,12.52,12.52,0,0,0-5.18-2,61,61,0,0,1,6.86,9,48.27,48.27,0,0,1,3,5.94,3.5,3.5,0,0,1-3-1.19c-14-14.46-18.45-11.47-18.45-11.47s5.49,18-9.47,25.93c-1,.52-1.94,1-2.87,1.4.18-.61.35-1.22.53-1.85a68,68,0,0,0,2.12-9.17,14.53,14.53,0,0,0-5.62,8.18,16.32,16.32,0,0,0-.62,4.21c-.93.29-1.81.53-2.66.72.43-1.91.87-3.91,1.34-6,1.48-6.59,2.89-12.54,3.58-17.05a43.47,43.47,0,0,0-7.13,16.25,48.15,48.15,0,0,0-1.07,7.31,25.31,25.31,0,0,1-2.82.11,103.77,103.77,0,0,1,2.15-12,130,130,0,0,1,6.68-19.47,34.16,34.16,0,0,0-5.82,7.57,42.23,42.23,0,0,0-5.55,22.87c0,.29,0,.57.05.85-.54-.08-1.05-.17-1.52-.28-1.08-13.25,3.72-26.53,13.2-39.84L325,163.29s2.38-9.23-5.36-14a18,18,0,0,0-5.25-3,28.07,28.07,0,0,0-12.81-1.27,58.54,58.54,0,0,0-6.45,1.09c-2,.46-4,.93-5.82,1.49a30.08,30.08,0,0,0-8.28,3.67,8.35,8.35,0,0,0,.06-2.3,7.75,7.75,0,0,0-.69-2.53,4.7,4.7,0,0,0-1-1.32,3.93,3.93,0,0,0-1.66-1,6.31,6.31,0,0,0-1.62-.2c-.47,0-.83,0-1.25,0-.81,0-1.63.08-2.45.15a45.8,45.8,0,0,0-14.79,3.67c-.64-1-12.39-19.84-17.87-20.67,3.55,5.14,16.07,23.62,15.15,27.37-1.06,4.36-9.36-4.21-9.36-4.21s13.54,21.78,8.36,20.9-6.62.31-2.58,9a27.15,27.15,0,0,1,1,2.58c-3.05-2.54-6.45-4.72-9.71-7-3.9-2.74-7.76-5.87-10.39-9.77-.74-1.16-2.88-5-3.09-4.64a107.81,107.81,0,0,1-14.89,20.66c-1.44,1.57-3.69,2.46-8.53,8.93a13.4,13.4,0,0,0-.94,1.46,137,137,0,0,1,3.47-17.63c1.6-6.28,3.32-12.22,4.94-17.6a71.82,71.82,0,0,1,2.55-7.45,24.65,24.65,0,0,1,3.43-5.89,19.44,19.44,0,0,0-4.76,5.17,46.15,46.15,0,0,0-3.72,7.26,122.5,122.5,0,0,0-6,17.61,78.18,78.18,0,0,0-2.61,18.22,95.11,95.11,0,0,1-1.84-10.41,25.78,25.78,0,0,0-1.29,8.57,32,32,0,0,0,7.43,20l.16.18a28.22,28.22,0,0,0,2.43,3.24c6.29,7.24,8.88,8.68,11.88,10.95l1.17-7.65c3.86,4.05,8.49,7.41,12.92,7.41,6,0,11-7.56,14.25-13.42l1.33,3.41a35,35,0,0,0,8.48-11.3c2.93-4.78,7.31-15.83,4.53-36.87.39,1.26.76,2.57,1.08,3.92a57,57,0,0,1-2.57,35.34A67.87,67.87,0,0,1,255,218.63a40.76,40.76,0,0,0,6.52-7.19,31.94,31.94,0,0,0,5.07-2.32,30.92,30.92,0,0,0,7.73-6.23,29.08,29.08,0,0,0,4.83-7.67,41.73,41.73,0,0,0,8.06,22.86,26.76,26.76,0,0,0,1.84,2.22c.61.73,1.28,1.37,1.92,2,1.31,1.26,2.62,2.39,3.87,3.49a43,43,0,0,1,6.4,6.53,33.35,33.35,0,0,0-5.33-7.6c-1.1-1.26-2.25-2.54-3.38-3.88-.55-.68-1.12-1.34-1.62-2.07s-1.05-1.44-1.52-2.22a44.8,44.8,0,0,1-6.65-22.4,61.06,61.06,0,0,1,4-23.35A113,113,0,0,1,295.31,153a70,70,0,0,0-11,16.75,59.66,59.66,0,0,0-3.95,11.44,52.81,52.81,0,0,0-1.22,8.87,81.55,81.55,0,0,1-7.53,10.38,92.54,92.54,0,0,1-8,7.76c.3-.5.6-1,.88-1.55a45.37,45.37,0,0,0,2.82-6.43,35.41,35.41,0,0,0,7-14.19,34.11,34.11,0,0,0-.09-17.54c-.92,4.4-1.87,10.29-3.44,16.67q-.53,2.13-1.08,4.14c0-.33.07-.65.1-1a46.51,46.51,0,0,0-2.61-18.9,42.35,42.35,0,0,0-4.6-9.16,63,63,0,0,0-3.73-11.64c3.93,0,8.68-.36,13.83-.8l2.38-.21,1.12-.1a4.38,4.38,0,0,1,.69,0,.76.76,0,0,1,.34.11,1.73,1.73,0,0,1,.43.43,6.07,6.07,0,0,1,.76,1.53,9.52,9.52,0,0,1-.32,6.77,7.7,7.7,0,0,0,2.76-4.53,70.75,70.75,0,0,1,8.93-1.55c1.85-.23,3.84-.47,5.87-.76s4.11-.58,6.23-.8c.94-.11,1.87-.18,2.79-.24-2.15.48-3.68,1-3.68,1s-14.21,18-14.58,40,16.82,37.39,16.82,37.39l3-5.61a.41.41,0,0,0-.05-.09h0c2.53-4.91,5.8-11.35,6-12.26.37-1.49,6-10.09,6-10.09s18.69-2.25,28-10.85c4.49-1.87,17.2-1.87,24.68-7.1,3-.75,17.2-5.61,17.2-5.61l13.08,4.49s5.24,11.21,7.48,12.71,6.36.75,6.36.75L425.53,204l5.61-4.11Z" transform="translate(-78.17 -50.58)"/><path d="M276.38,238a50.18,50.18,0,0,1-14.3,5,75.67,75.67,0,0,1-15.22,1.21c-4.71-.06-9-.41-12.48-.69a79.74,79.74,0,0,0,12.42,2,58.79,58.79,0,0,0,15.63-.75,43,43,0,0,0,14.62-5.68,32,32,0,0,0,9.18-8.63A40.5,40.5,0,0,1,276.38,238Z" transform="translate(-78.17 -50.58)"/><path d="M249.56,345.86a68.91,68.91,0,0,0-6.47-5.5,12.6,12.6,0,0,0,12.45,11.52A70,70,0,0,0,249.56,345.86Z" transform="translate(-78.17 -50.58)"/><path class="cls-4" d="M235.92,198.3a21.82,21.82,0,0,1,4.92-4.83c2.83-1.91,8.27-3.18,8.27-3.18S246.92,198.21,235.92,198.3Z" transform="translate(-78.17 -50.58)"/><path class="cls-4" d="M228.2,198.39a41.22,41.22,0,0,0-5.62-4.53,44.1,44.1,0,0,0-8.33-3.67S216.67,198.47,228.2,198.39Z" transform="translate(-78.17 -50.58)"/></g></svg>